<mxfile host="app.diagrams.net" agent="Mozilla/5.0 (Macintosh; Intel Mac OS X 10_15_7) AppleWebKit/537.36 (KHTML, like Gecko) Chrome/138.0.0.0 Safari/537.36" version="28.1.0">
  <diagram name="第 1 页" id="bHeD-zbfW_tD5q5CruoQ">
    <mxGraphModel dx="1113" dy="659" grid="1" gridSize="10" guides="1" tooltips="1" connect="1" arrows="1" fold="1" page="1" pageScale="1" pageWidth="827" pageHeight="1169" math="0" shadow="0">
      <root>
        <mxCell id="0" />
        <mxCell id="1" parent="0" />
        <mxCell id="qkf7V3da2QYLknbLEeJb-1" value="" style="rounded=1;whiteSpace=wrap;html=1;fillColor=#dae8fc;strokeColor=#6c8ebf;gradientColor=#7ea6e0;" vertex="1" parent="1">
          <mxGeometry x="20" y="150" width="300" height="200" as="geometry" />
        </mxCell>
        <mxCell id="qkf7V3da2QYLknbLEeJb-2" value="" style="rounded=1;whiteSpace=wrap;html=1;fillColor=#ffe6cc;strokeColor=#d79b00;" vertex="1" parent="1">
          <mxGeometry x="320" y="150" width="300" height="200" as="geometry" />
        </mxCell>
        <mxCell id="qkf7V3da2QYLknbLEeJb-3" value="" style="rounded=1;whiteSpace=wrap;html=1;fillColor=#f8cecc;strokeColor=#b85450;" vertex="1" parent="1">
          <mxGeometry x="620" y="150" width="300" height="200" as="geometry" />
        </mxCell>
        <mxCell id="qkf7V3da2QYLknbLEeJb-4" value="" style="rounded=1;whiteSpace=wrap;html=1;fillColor=#e1d5e7;strokeColor=#9673a6;" vertex="1" parent="1">
          <mxGeometry x="20" y="350" width="300" height="200" as="geometry" />
        </mxCell>
        <mxCell id="qkf7V3da2QYLknbLEeJb-5" value="" style="rounded=1;whiteSpace=wrap;html=1;fillColor=#e6d0de;strokeColor=#996185;gradientColor=#d5739d;" vertex="1" parent="1">
          <mxGeometry x="320" y="350" width="300" height="200" as="geometry" />
        </mxCell>
        <mxCell id="qkf7V3da2QYLknbLEeJb-6" value="" style="rounded=1;whiteSpace=wrap;html=1;fillColor=#d5e8d4;strokeColor=#82b366;gradientColor=#97d077;" vertex="1" parent="1">
          <mxGeometry x="620" y="350" width="300" height="200" as="geometry" />
        </mxCell>
        <mxCell id="qkf7V3da2QYLknbLEeJb-7" value="" style="rounded=1;whiteSpace=wrap;html=1;fillColor=#ffcd28;strokeColor=#d79b00;gradientColor=#ffa500;" vertex="1" parent="1">
          <mxGeometry x="20" y="550" width="300" height="200" as="geometry" />
        </mxCell>
        <mxCell id="qkf7V3da2QYLknbLEeJb-8" value="" style="rounded=1;whiteSpace=wrap;html=1;fillColor=#fff2cc;strokeColor=#d6b656;gradientColor=#ffd966;" vertex="1" parent="1">
          <mxGeometry x="320" y="550" width="300" height="200" as="geometry" />
        </mxCell>
        <mxCell id="qkf7V3da2QYLknbLEeJb-9" value="" style="rounded=1;whiteSpace=wrap;html=1;fillColor=#dae8fc;strokeColor=#6c8ebf;gradientColor=#7ea6e0;" vertex="1" parent="1">
          <mxGeometry x="620" y="550" width="300" height="200" as="geometry" />
        </mxCell>
      </root>
    </mxGraphModel>
  </diagram>
</mxfile>
